<svg version="1.1" viewBox="0.0 0.0 536.4041994750656 100.0" fill="none" stroke="none" stroke-linecap="square" stroke-miterlimit="10" xmlns:xlink="http://www.w3.org/1999/xlink" xmlns="http://www.w3.org/2000/svg"><clipPath id="p.0"><path d="m0 0l536.4042 0l0 100.0l-536.4042 0l0 -100.0z" clip-rule="nonzero"/></clipPath><g clip-path="url(#p.0)"><path fill="#000000" fill-opacity="0.0" d="m0 0l536.4042 0l0 100.0l-536.4042 0z" fill-rule="evenodd"/><g filter="url(#shadowFilter-p.1)"><use xlink:href="#p.1" transform="matrix(1.0 0.0 0.0 1.0 0.0 2.0)"/></g><defs><filter id="shadowFilter-p.1" filterUnits="userSpaceOnUse"><feGaussianBlur in="SourceAlpha" stdDeviation="2.0" result="blur"/><feComponentTransfer in="blur" color-interpolation-filters="sRGB"><feFuncR type="linear" slope="0" intercept="0.0"/><feFuncG type="linear" slope="0" intercept="0.0"/><feFuncB type="linear" slope="0" intercept="0.0"/><feFuncA type="linear" slope="0.5" intercept="0"/></feComponentTransfer></filter></defs><g id="p.1"><path fill="#37123c" d="m3.6220472 24.152489l0 0c0 -7.137806 5.786336 -12.924142 12.924143 -12.924142l123.06511 0c3.4276886 0 6.7149963 1.3616467 9.138748 3.7853937c2.4237366 2.423746 3.7853851 5.711054 3.7853851 9.138748l0 51.695023c0 7.1378098 -5.786331 12.924141 -12.924133 12.924141l-123.06511 0c-7.137807 0 -12.924143 -5.786331 -12.924143 -12.924141z" fill-rule="evenodd"/><path stroke="#37123c" stroke-width="1.0" stroke-linejoin="round" stroke-linecap="butt" d="m3.6220472 24.152489l0 0c0 -7.137806 5.786336 -12.924142 12.924143 -12.924142l123.06511 0c3.4276886 0 6.7149963 1.3616467 9.138748 3.7853937c2.4237366 2.423746 3.7853851 5.711054 3.7853851 9.138748l0 51.695023c0 7.1378098 -5.786331 12.924141 -12.924133 12.924141l-123.06511 0c-7.137807 0 -12.924143 -5.786331 -12.924143 -12.924141z" fill-rule="evenodd"/><path fill="#ffffff" d="m43.28577 46.36l-2.046875 0l0 -1.21875q-0.5 0.703125 -1.203125 1.0625q-0.6875 0.34375 -1.390625 0.34375q-1.421875 0 -2.453125 -1.15625q-1.015625 -1.15625 -1.015625 -3.21875q0 -2.109375 0.984375 -3.203125q1.0 -1.09375 2.515625 -1.09375q1.390625 0 2.40625 1.15625l0 -4.125l2.203125 0l0 11.453125zm-5.859375 -4.328125q0 1.328125 0.359375 1.921875q0.53125 0.859375 1.484375 0.859375q0.765625 0 1.296875 -0.640625q0.53125 -0.65625 0.53125 -1.9375q0 -1.421875 -0.515625 -2.046875q-0.515625 -0.640625 -1.328125 -0.640625q-0.78125 0 -1.3125 0.625q-0.515625 0.625 -0.515625 1.859375zm7.9296875 4.328125l0 -11.453125l2.1875 0l0 4.125q1.015625 -1.15625 2.40625 -1.15625q1.515625 0 2.5 1.09375q1.0 1.09375 1.0 3.15625q0 2.125 -1.015625 3.28125q-1.0 1.140625 -2.453125 1.140625q-0.703125 0 -1.40625 -0.359375q-0.6875 -0.359375 -1.1875 -1.046875l0 1.21875l-2.03125 0zm2.171875 -4.328125q0 1.28125 0.40625 1.90625q0.578125 0.875 1.515625 0.875q0.734375 0 1.234375 -0.625q0.515625 -0.625 0.515625 -1.953125q0 -1.421875 -0.515625 -2.046875q-0.515625 -0.640625 -1.3125 -0.640625q-0.796875 0 -1.328125 0.625q-0.515625 0.609375 -0.515625 1.859375zm11.4921875 -3.96875l0 1.75l-1.5 0l0 3.34375q0 1.015625 0.046875 1.1875q0.046875 0.15625 0.1875 0.265625q0.15625 0.109375 0.375 0.109375q0.3125 0 0.890625 -0.203125l0.1875 1.703125q-0.765625 0.328125 -1.734375 0.328125q-0.59375 0 -1.078125 -0.203125q-0.46875 -0.203125 -0.703125 -0.515625q-0.21875 -0.3125 -0.296875 -0.859375q-0.078125 -0.375 -0.078125 -1.546875l0 -3.609375l-1.0 0l0 -1.75l1.0 0l0 -1.65625l2.203125 -1.28125l0 2.9375l1.5 0zm0.21875 11.46875l0 -1.421875l9.140629 0l0 1.421875l-9.140629 0zm10.148441 -11.46875l2.046875 0l0 1.21875q0.390625 -0.625 1.0625 -1.015625q0.6875 -0.390625 1.515625 -0.390625q1.453125 0 2.453125 1.140625q1.015625 1.125 1.015625 3.140625q0 2.078125 -1.015625 3.234375q-1.015625 1.15625 -2.46875 1.15625q-0.6875 0 -1.25 -0.265625q-0.546875 -0.28125 -1.171875 -0.953125l0 4.1875l-2.1875 0l0 -11.453125zm2.171875 4.0q0 1.40625 0.546875 2.078125q0.5625 0.65625 1.359375 0.65625q0.765625 0 1.265625 -0.609375q0.515625 -0.609375 0.515625 -2.015625q0 -1.296875 -0.53125 -1.921875q-0.515625 -0.640625 -1.296875 -0.640625q-0.796875 0 -1.328125 0.625q-0.53125 0.609375 -0.53125 1.828125zm9.7578125 4.296875l-2.1875 0l0 -8.296875l2.03125 0l0 1.171875q0.53125 -0.828125 0.9375 -1.09375q0.421875 -0.265625 0.953125 -0.265625q0.75 0 1.453125 0.40625l-0.6875 1.921875q-0.546875 -0.359375 -1.03125 -0.359375q-0.453125 0 -0.78125 0.25q-0.3125 0.25 -0.5 0.921875q-0.1875 0.65625 -0.1875 2.78125l0 2.5625zm3.6171875 -4.265625q0 -1.09375 0.53125 -2.109375q0.546875 -1.03125 1.53125 -1.5625q1.0 -0.546875 2.21875 -0.546875q1.875 0 3.078125 1.21875q1.203125 1.21875 1.203125 3.09375q0 1.875 -1.21875 3.125q-1.203125 1.234375 -3.046875 1.234375q-1.140625 0 -2.1875 -0.515625q-1.03125 -0.515625 -1.578125 -1.515625q-0.53125 -1.0 -0.53125 -2.421875zm2.25 0.109375q0 1.234375 0.578125 1.890625q0.59375 0.65625 1.453125 0.65625q0.859375 0 1.4375 -0.65625q0.59375 -0.65625 0.59375 -1.90625q0 -1.21875 -0.59375 -1.875q-0.578125 -0.65625 -1.4375 -0.65625q-0.859375 0 -1.453125 0.65625q-0.578125 0.65625 -0.578125 1.890625zm7.9921875 -5.265625l0 -2.03125l2.1875 0l0 2.03125l-2.1875 0zm2.1875 1.125l0 8.03125q0 1.59375 -0.203125 2.25q-0.203125 0.65625 -0.796875 1.015625q-0.59375 0.375 -1.5 0.375q-0.328125 0 -0.71875 -0.0625q-0.375 -0.0625 -0.8125 -0.171875l0.375 -1.875q0.15625 0.03125 0.296875 0.046875q0.140625 0.015625 0.265625 0.015625q0.328125 0 0.546875 -0.140625q0.21875 -0.140625 0.28125 -0.34375q0.078125 -0.203125 0.078125 -1.234375l0 -7.90625l2.1875 0zm7.1015625 5.65625l2.1875 0.359375q-0.421875 1.203125 -1.328125 1.84375q-0.90625 0.625 -2.28125 0.625q-2.15625 0 -3.203125 -1.421875q-0.8125 -1.125 -0.8125 -2.859375q0 -2.0625 1.078125 -3.21875q1.078125 -1.171875 2.71875 -1.171875q1.859375 0 2.921875 1.21875q1.078125 1.21875 1.03125 3.75l-5.5 0q0.015625 0.96875 0.515625 1.515625q0.515625 0.546875 1.28125 0.546875q0.515625 0 0.859375 -0.28125q0.359375 -0.28125 0.53125 -0.90625zm0.125 -2.21875q-0.015625 -0.953125 -0.484375 -1.453125q-0.46875 -0.5 -1.140625 -0.5q-0.71875 0 -1.1875 0.53125q-0.46875 0.515625 -0.46875 1.421875l3.28125 0zm11.2109375 -0.984375l-2.171875 0.390625q-0.109375 -0.65625 -0.5 -0.984375q-0.375 -0.328125 -1.0 -0.328125q-0.8125 0 -1.3125 0.578125q-0.484375 0.5625 -0.484375 1.890625q0 1.46875 0.5 2.078125q0.5 0.609375 1.328125 0.609375q0.625 0 1.015625 -0.34375q0.40625 -0.359375 0.578125 -1.234375l2.15625 0.375q-0.34375 1.484375 -1.296875 2.25q-0.953125 0.75 -2.546875 0.75q-1.828125 0 -2.90625 -1.140625q-1.078125 -1.15625 -1.078125 -3.1875q0 -2.0625 1.078125 -3.203125q1.09375 -1.140625 2.9375 -1.140625q1.515625 0 2.40625 0.65625q0.90625 0.640625 1.296875 1.984375zm5.4609375 -2.453125l0 1.75l-1.5 0l0 3.34375q0 1.015625 0.046875 1.1875q0.046875 0.15625 0.1875 0.265625q0.15625 0.109375 0.375 0.109375q0.3125 0 0.890625 -0.203125l0.1875 1.703125q-0.765625 0.328125 -1.734375 0.328125q-0.59375 0 -1.078125 -0.203125q-0.46875 -0.203125 -0.703125 -0.515625q-0.21875 -0.3125 -0.296875 -0.859375q-0.078125 -0.375 -0.078125 -1.546875l0 -3.609375l-1.0 0l0 -1.75l1.0 0l0 -1.65625l2.203125 -1.28125l0 2.9375l1.5 0z" fill-rule="nonzero"/><path fill="#ffffff" d="m66.70765 57.063126l1.21875 0l0 -0.625q0 -1.046875 0.21875 -1.5625q0.234375 -0.515625 0.828125 -0.84375q0.59375 -0.328125 1.515625 -0.328125q0.9375 0 1.828125 0.28125l-0.296875 1.53125q-0.515625 -0.125 -1.0 -0.125q-0.484375 0 -0.6875 0.234375q-0.203125 0.21875 -0.203125 0.84375l0 0.59375l1.640625 0l0 1.71875l-1.640625 0l0 6.578125l-2.203125 0l0 -6.578125l-1.21875 0l0 -1.71875zm6.296875 -1.125l0 -2.03125l2.1875 0l0 2.03125l-2.1875 0zm0 9.421875l0 -8.296875l2.1875 0l0 8.296875l-2.1875 0zm4.4453125 0l0 -11.453125l2.1875 0l0 11.453125l-2.1875 0zm9.2421875 -2.640625l2.1875 0.359375q-0.421875 1.203125 -1.328125 1.84375q-0.90625 0.625 -2.28125 0.625q-2.15625 0 -3.203125 -1.421875q-0.8125 -1.125 -0.8125 -2.859375q0 -2.0625 1.078125 -3.21875q1.078125 -1.171875 2.71875 -1.171875q1.859375 0 2.921875 1.21875q1.078125 1.21875 1.03125 3.75l-5.5 0q0.015625 0.96875 0.515625 1.515625q0.515625 0.546875 1.28125 0.546875q0.515625 0 0.859375 -0.28125q0.359375 -0.28125 0.53125 -0.90625zm0.125 -2.21875q-0.015625 -0.953125 -0.484375 -1.453125q-0.46875 -0.5 -1.140625 -0.5q-0.71875 0 -1.1875 0.53125q-0.46875 0.515625 -0.46875 1.421875l3.28125 0z" fill-rule="nonzero"/></g><path fill="#71677c" d="m194.21391 24.152489l0 0c0 -7.137806 5.786331 -12.924142 12.924133 -12.924142l123.06511 0c3.4277039 0 6.7149963 1.3616467 9.138733 3.7853937c2.423767 2.423746 3.7854004 5.711054 3.7854004 9.138748l0 51.695023c0 7.1378098 -5.786316 12.924141 -12.924133 12.924141l-123.06511 0c-7.137802 0 -12.924133 -5.786331 -12.924133 -12.924141z" fill-rule="evenodd"/><path stroke="#71677c" stroke-width="1.0" stroke-linejoin="round" stroke-linecap="butt" d="m194.21391 24.152489l0 0c0 -7.137806 5.786331 -12.924142 12.924133 -12.924142l123.06511 0c3.4277039 0 6.7149963 1.3616467 9.138733 3.7853937c2.423767 2.423746 3.7854004 5.711054 3.7854004 9.138748l0 51.695023c0 7.1378098 -5.786316 12.924141 -12.924133 12.924141l-123.06511 0c-7.137802 0 -12.924133 -5.786331 -12.924133 -12.924141z" fill-rule="evenodd"/><path fill="#ffffff" d="m211.42451 38.063126l2.03125 0l0 1.125q1.078125 -1.3125 2.578125 -1.3125q0.796875 0 1.375 0.328125q0.59375 0.328125 0.96875 0.984375q0.546875 -0.65625 1.171875 -0.984375q0.640625 -0.328125 1.359375 -0.328125q0.921875 0 1.546875 0.375q0.640625 0.359375 0.953125 1.078125q0.21875 0.53125 0.21875 1.71875l0 5.3125l-2.1875 0l0 -4.75q0 -1.234375 -0.234375 -1.59375q-0.296875 -0.46875 -0.9375 -0.46875q-0.453125 0 -0.859375 0.28125q-0.40625 0.28125 -0.59375 0.828125q-0.171875 0.546875 -0.171875 1.71875l0 3.984375l-2.203125 0l0 -4.546875q0 -1.21875 -0.125 -1.5625q-0.109375 -0.359375 -0.359375 -0.53125q-0.234375 -0.171875 -0.65625 -0.171875q-0.515625 0 -0.921875 0.28125q-0.40625 0.265625 -0.578125 0.78125q-0.171875 0.515625 -0.171875 1.71875l0 4.03125l-2.203125 0l0 -8.296875zm13.8828125 4.03125q0 -1.09375 0.53125 -2.109375q0.546875 -1.03125 1.53125 -1.5625q1.0 -0.546875 2.21875 -0.546875q1.875 0 3.078125 1.21875q1.203125 1.21875 1.203125 3.09375q0 1.875 -1.21875 3.125q-1.203125 1.234375 -3.046875 1.234375q-1.140625 0 -2.1875 -0.515625q-1.03125 -0.515625 -1.578125 -1.515625q-0.53125 -1.0 -0.53125 -2.421875zm2.25 0.109375q0 1.234375 0.578125 1.890625q0.59375 0.65625 1.453125 0.65625q0.859375 0 1.4375 -0.65625q0.59375 -0.65625 0.59375 -1.90625q0 -1.21875 -0.59375 -1.875q-0.578125 -0.65625 -1.4375 -0.65625q-0.859375 0 -1.453125 0.65625q-0.578125 0.65625 -0.578125 1.890625zm15.6484375 4.15625l-2.046875 0l0 -1.21875q-0.5 0.703125 -1.203125 1.0625q-0.6875 0.34375 -1.390625 0.34375q-1.421875 0 -2.453125 -1.15625q-1.015625 -1.15625 -1.015625 -3.21875q0 -2.109375 0.984375 -3.203125q1.0 -1.09375 2.515625 -1.09375q1.390625 0 2.40625 1.15625l0 -4.125l2.203125 0l0 11.453125zm-5.859375 -4.328125q0 1.328125 0.359375 1.921875q0.53125 0.859375 1.484375 0.859375q0.765625 0 1.296875 -0.640625q0.53125 -0.65625 0.53125 -1.9375q0 -1.421875 -0.515625 -2.046875q-0.515625 -0.640625 -1.328125 -0.640625q-0.78125 0 -1.3125 0.625q-0.515625 0.625 -0.515625 1.859375zm12.8203125 1.6875l2.1875 0.359375q-0.421875 1.203125 -1.328125 1.84375q-0.90625 0.625 -2.28125 0.625q-2.15625 0 -3.203125 -1.421875q-0.8125 -1.125 -0.8125 -2.859375q0 -2.0625 1.078125 -3.21875q1.078125 -1.171875 2.71875 -1.171875q1.859375 0 2.921875 1.21875q1.078125 1.21875 1.03125 3.75l-5.5 0q0.015625 0.96875 0.515625 1.515625q0.515625 0.546875 1.28125 0.546875q0.515625 0 0.859375 -0.28125q0.359375 -0.28125 0.53125 -0.90625zm0.125 -2.21875q-0.015625 -0.953125 -0.484375 -1.453125q-0.46875 -0.5 -1.140625 -0.5q-0.71875 0 -1.1875 0.53125q-0.46875 0.515625 -0.46875 1.421875l3.28125 0zm3.9765625 4.859375l0 -11.453125l2.1874847 0l0 11.453125l-2.1874847 0zm8.82811 -8.296875l2.046875 0l0 1.21875q0.390625 -0.625 1.0625 -1.015625q0.6875 -0.390625 1.515625 -0.390625q1.453125 0 2.453125 1.140625q1.015625 1.125 1.015625 3.140625q0 2.078125 -1.015625 3.234375q-1.015625 1.15625 -2.46875 1.15625q-0.6875 0 -1.25 -0.265625q-0.546875 -0.28125 -1.171875 -0.953125l0 4.1875l-2.1875 0l0 -11.453125zm2.171875 4.0q0 1.40625 0.546875 2.078125q0.5625 0.65625 1.359375 0.65625q0.765625 0 1.265625 -0.609375q0.515625 -0.609375 0.515625 -2.015625q0 -1.296875 -0.53125 -1.921875q-0.515625 -0.640625 -1.296875 -0.640625q-0.796875 0 -1.328125 0.625q-0.53125 0.609375 -0.53125 1.828125zm9.7578125 4.296875l-2.1875 0l0 -8.296875l2.03125 0l0 1.171875q0.53125 -0.828125 0.9375 -1.09375q0.421875 -0.265625 0.953125 -0.265625q0.75 0 1.453125 0.40625l-0.6875 1.921875q-0.546875 -0.359375 -1.03125 -0.359375q-0.453125 0 -0.78125 0.25q-0.3125 0.25 -0.5 0.921875q-0.1875 0.65625 -0.1875 2.78125l0 2.5625zm3.6171875 -4.265625q0 -1.09375 0.53125 -2.109375q0.546875 -1.03125 1.53125 -1.5625q1.0 -0.546875 2.21875 -0.546875q1.875 0 3.078125 1.21875q1.203125 1.21875 1.203125 3.09375q0 1.875 -1.21875 3.125q-1.203125 1.234375 -3.046875 1.234375q-1.140625 0 -2.1875 -0.515625q-1.03125 -0.515625 -1.578125 -1.515625q-0.53125 -1.0 -0.53125 -2.421875zm2.25 0.109375q0 1.234375 0.578125 1.890625q0.59375 0.65625 1.453125 0.65625q0.859375 0 1.4375 -0.65625q0.59375 -0.65625 0.59375 -1.90625q0 -1.21875 -0.59375 -1.875q-0.578125 -0.65625 -1.4375 -0.65625q-0.859375 0 -1.453125 0.65625q-0.578125 0.65625 -0.578125 1.890625zm7.9765625 -4.140625l2.046875 0l0 1.21875q0.390625 -0.625 1.0625 -1.015625q0.6875 -0.390625 1.515625 -0.390625q1.453125 0 2.453125 1.140625q1.015625 1.125 1.015625 3.140625q0 2.078125 -1.015625 3.234375q-1.015625 1.15625 -2.46875 1.15625q-0.6875 0 -1.25 -0.265625q-0.546875 -0.28125 -1.171875 -0.953125l0 4.1875l-2.1875 0l0 -11.453125zm2.171875 4.0q0 1.40625 0.546875 2.078125q0.5625 0.65625 1.359375 0.65625q0.765625 0 1.265625 -0.609375q0.515625 -0.609375 0.515625 -2.015625q0 -1.296875 -0.53125 -1.921875q-0.515625 -0.640625 -1.296875 -0.640625q-0.796875 0 -1.328125 0.625q-0.53125 0.609375 -0.53125 1.828125zm12.4609375 1.65625l2.1875 0.359375q-0.421875 1.203125 -1.328125 1.84375q-0.90625 0.625 -2.28125 0.625q-2.15625 0 -3.203125 -1.421875q-0.8125 -1.125 -0.8125 -2.859375q0 -2.0625 1.078125 -3.21875q1.078125 -1.171875 2.71875 -1.171875q1.859375 0 2.921875 1.21875q1.078125 1.21875 1.03125 3.75l-5.5 0q0.015625 0.96875 0.515625 1.515625q0.515625 0.546875 1.28125 0.546875q0.515625 0 0.859375 -0.28125q0.359375 -0.28125 0.53125 -0.90625zm0.125 -2.21875q-0.015625 -0.953125 -0.484375 -1.453125q-0.46875 -0.5 -1.140625 -0.5q-0.71875 0 -1.1875 0.53125q-0.46875 0.515625 -0.46875 1.421875l3.28125 0zm6.0703125 4.859375l-2.1875 0l0 -8.296875l2.03125 0l0 1.171875q0.53125 -0.828125 0.9375 -1.09375q0.421875 -0.265625 0.953125 -0.265625q0.75 0 1.453125 0.40625l-0.6875 1.921875q-0.546875 -0.359375 -1.03125 -0.359375q-0.453125 0 -0.78125 0.25q-0.3125 0.25 -0.5 0.921875q-0.1875 0.65625 -0.1875 2.78125l0 2.5625zm7.9296875 -8.296875l0 1.75l-1.5 0l0 3.34375q0 1.015625 0.046875 1.1875q0.046875 0.15625 0.1875 0.265625q0.15625 0.109375 0.375 0.109375q0.3125 0 0.890625 -0.203125l0.1875 1.703125q-0.765625 0.328125 -1.734375 0.328125q-0.59375 0 -1.078125 -0.203125q-0.46875 -0.203125 -0.703125 -0.515625q-0.21875 -0.3125 -0.296875 -0.859375q-0.078125 -0.375 -0.078125 -1.546875l0 -3.609375l-1.0 0l0 -1.75l1.0 0l0 -1.65625l2.203125 -1.28125l0 2.9375l1.5 0zm0.484375 0l2.34375 0l1.984375 5.890625l1.9375 -5.890625l2.265625 0l-2.921875 7.984375l-0.53125 1.453125q-0.28125 0.71875 -0.546875 1.09375q-0.265625 0.390625 -0.609375 0.625q-0.328125 0.25 -0.828125 0.375q-0.5 0.140625 -1.125 0.140625q-0.625 0 -1.234375 -0.140625l-0.203125 -1.71875q0.515625 0.109375 0.9375 0.109375q0.765625 0 1.125 -0.453125q0.375 -0.453125 0.5625 -1.140625l-3.15625 -8.328125z" fill-rule="nonzero"/><path fill="#ffffff" d="m257.2995 57.063126l1.21875 0l0 -0.625q0 -1.046875 0.21875 -1.5625q0.234375 -0.515625 0.828125 -0.84375q0.59375 -0.328125 1.515625 -0.328125q0.9375 0 1.828125 0.28125l-0.296875 1.53125q-0.515625 -0.125 -1.0 -0.125q-0.484375 0 -0.6875 0.234375q-0.203125 0.21875 -0.203125 0.84375l0 0.59375l1.640625 0l0 1.71875l-1.640625 0l0 6.578125l-2.203125 0l0 -6.578125l-1.21875 0l0 -1.71875zm6.296875 -1.125l0 -2.03125l2.1875 0l0 2.03125l-2.1875 0zm0 9.421875l0 -8.296875l2.1875 0l0 8.296875l-2.1875 0zm4.4453125 0l0 -11.453125l2.1875 0l0 11.453125l-2.1875 0zm9.2421875 -2.640625l2.1875 0.359375q-0.421875 1.203125 -1.328125 1.84375q-0.90625 0.625 -2.28125 0.625q-2.15625 0 -3.203125 -1.421875q-0.8125 -1.125 -0.8125 -2.859375q0 -2.0625 1.078125 -3.21875q1.078125 -1.171875 2.71875 -1.171875q1.859375 0 2.921875 1.21875q1.078125 1.21875 1.03125 3.75l-5.5 0q0.015625 0.96875 0.515625 1.515625q0.515625 0.546875 1.28125 0.546875q0.515625 0 0.859375 -0.28125q0.359375 -0.28125 0.53125 -0.90625zm0.125 -2.21875q-0.015625 -0.953125 -0.484375 -1.453125q-0.46875 -0.5 -1.140625 -0.5q-0.71875 0 -1.1875 0.53125q-0.46875 0.515625 -0.46875 1.421875l3.28125 0z" fill-rule="nonzero"/><path fill="#a99f96" d="m383.86877 24.152489l0 0c0 -7.137806 5.786316 -12.924142 12.924133 -12.924142l123.065125 0c3.4276733 0 6.714966 1.3616467 9.138733 3.7853937c2.423767 2.423746 3.7854004 5.711054 3.7854004 9.138748l0 51.695023c0 7.1378098 -5.786377 12.924141 -12.924133 12.924141l-123.065125 0c-7.1378174 0 -12.924133 -5.786331 -12.924133 -12.924141z" fill-rule="evenodd"/><path stroke="#a99f96" stroke-width="1.0" stroke-linejoin="round" stroke-linecap="butt" d="m383.86877 24.152489l0 0c0 -7.137806 5.786316 -12.924142 12.924133 -12.924142l123.065125 0c3.4276733 0 6.714966 1.3616467 9.138733 3.7853937c2.423767 2.423746 3.7854004 5.711054 3.7854004 9.138748l0 51.695023c0 7.1378098 -5.786377 12.924141 -12.924133 12.924141l-123.065125 0c-7.1378174 0 -12.924133 -5.786331 -12.924133 -12.924141z" fill-rule="evenodd"/><path fill="#ffffff" d="m421.97 38.063126l2.03125 0l0 1.125q1.078125 -1.3125 2.578125 -1.3125q0.796875 0 1.375 0.328125q0.59375 0.328125 0.96875 0.984375q0.546875 -0.65625 1.171875 -0.984375q0.640625 -0.328125 1.359375 -0.328125q0.921875 0 1.546875 0.375q0.640625 0.359375 0.953125 1.078125q0.21875 0.53125 0.21875 1.71875l0 5.3125l-2.1875 0l0 -4.75q0 -1.234375 -0.234375 -1.59375q-0.296875 -0.46875 -0.9375 -0.46875q-0.453125 0 -0.859375 0.28125q-0.40625 0.28125 -0.59375 0.828125q-0.171875 0.546875 -0.171875 1.71875l0 3.984375l-2.203125 0l0 -4.546875q0 -1.21875 -0.125 -1.5625q-0.109375 -0.359375 -0.359375 -0.53125q-0.234375 -0.171875 -0.65625 -0.171875q-0.515625 0 -0.921875 0.28125q-0.40625 0.265625 -0.578125 0.78125q-0.171875 0.515625 -0.171875 1.71875l0 4.03125l-2.203125 0l0 -8.296875zm13.8828125 4.03125q0 -1.09375 0.53125 -2.109375q0.546875 -1.03125 1.53125 -1.5625q1.0 -0.546875 2.21875 -0.546875q1.875 0 3.078125 1.21875q1.203125 1.21875 1.203125 3.09375q0 1.875 -1.21875 3.125q-1.203125 1.234375 -3.046875 1.234375q-1.140625 0 -2.1875 -0.515625q-1.03125 -0.515625 -1.578125 -1.515625q-0.53125 -1.0 -0.53125 -2.421875zm2.25 0.109375q0 1.234375 0.578125 1.890625q0.59375 0.65625 1.453125 0.65625q0.859375 0 1.4375 -0.65625q0.59375 -0.65625 0.59375 -1.90625q0 -1.21875 -0.59375 -1.875q-0.578125 -0.65625 -1.4375 -0.65625q-0.859375 0 -1.453125 0.65625q-0.578125 0.65625 -0.578125 1.890625zm15.6484375 4.15625l-2.046875 0l0 -1.21875q-0.5 0.703125 -1.203125 1.0625q-0.6875 0.34375 -1.390625 0.34375q-1.421875 0 -2.453125 -1.15625q-1.015625 -1.15625 -1.015625 -3.21875q0 -2.109375 0.984375 -3.203125q1.0 -1.09375 2.515625 -1.09375q1.390625 0 2.40625 1.15625l0 -4.125l2.203125 0l0 11.453125zm-5.859375 -4.328125q0 1.328125 0.359375 1.921875q0.53125 0.859375 1.484375 0.859375q0.765625 0 1.296875 -0.640625q0.53125 -0.65625 0.53125 -1.9375q0 -1.421875 -0.515625 -2.046875q-0.515625 -0.640625 -1.328125 -0.640625q-0.78125 0 -1.3125 0.625q-0.515625 0.625 -0.515625 1.859375zm12.8203125 1.6875l2.1875 0.359375q-0.421875 1.203125 -1.328125 1.84375q-0.90625 0.625 -2.28125 0.625q-2.15625 0 -3.203125 -1.421875q-0.8125 -1.125 -0.8125 -2.859375q0 -2.0625 1.078125 -3.21875q1.078125 -1.171875 2.71875 -1.171875q1.859375 0 2.921875 1.21875q1.078125 1.21875 1.03125 3.75l-5.5 0q0.015625 0.96875 0.515625 1.515625q0.515625 0.546875 1.28125 0.546875q0.515625 0 0.859375 -0.28125q0.359375 -0.28125 0.53125 -0.90625zm0.125 -2.21875q-0.015625 -0.953125 -0.484375 -1.453125q-0.46875 -0.5 -1.140625 -0.5q-0.71875 0 -1.1875 0.53125q-0.46875 0.515625 -0.46875 1.421875l3.28125 0zm3.9765625 4.859375l0 -11.453125l2.1875 0l0 11.453125l-2.1875 0zm7.921875 -8.296875l1.21875 0l0 -0.625q0 -1.046875 0.21875 -1.5625q0.234375 -0.515625 0.828125 -0.84375q0.59375 -0.328125 1.515625 -0.328125q0.9375 0 1.828125 0.28125l-0.296875 1.53125q-0.515625 -0.125 -1.0 -0.125q-0.484375 0 -0.6875 0.234375q-0.203125 0.21875 -0.203125 0.84375l0 0.59375l1.640625 0l0 1.71875l-1.640625 0l0 6.578125l-2.203125 0l0 -6.578125l-1.21875 0l0 -1.71875zm6.296875 -1.125l0 -2.03125l2.1875 0l0 2.03125l-2.1875 0zm0 9.421875l0 -8.296875l2.1875 0l0 8.296875l-2.1875 0zm4.4453125 0l0 -11.453125l2.1875 0l0 11.453125l-2.1875 0zm9.2421875 -2.640625l2.1875 0.359375q-0.421875 1.203125 -1.328125 1.84375q-0.90625 0.625 -2.28125 0.625q-2.15625 0 -3.203125 -1.421875q-0.8125 -1.125 -0.8125 -2.859375q0 -2.0625 1.078125 -3.21875q1.078125 -1.171875 2.71875 -1.171875q1.859375 0 2.921875 1.21875q1.078125 1.21875 1.03125 3.75l-5.5 0q0.015625 0.96875 0.515625 1.515625q0.515625 0.546875 1.28125 0.546875q0.515625 0 0.859375 -0.28125q0.359375 -0.28125 0.53125 -0.90625zm0.125 -2.21875q-0.015625 -0.953125 -0.484375 -1.453125q-0.46875 -0.5 -1.140625 -0.5q-0.71875 0 -1.1875 0.53125q-0.46875 0.515625 -0.46875 1.421875l3.28125 0z" fill-rule="nonzero"/><path fill="#ffffff" d="m419.6028 59.51625l-2.171875 0.390625q-0.109375 -0.65625 -0.5 -0.984375q-0.375 -0.328125 -1.0 -0.328125q-0.8125 0 -1.3125 0.578125q-0.484375 0.5625 -0.484375 1.890625q0 1.46875 0.5 2.078125q0.5 0.609375 1.328125 0.609375q0.625 0 1.015625 -0.34375q0.40625 -0.359375 0.578125 -1.234375l2.15625 0.375q-0.34375 1.484375 -1.296875 2.25q-0.953125 0.75 -2.546875 0.75q-1.828125 0 -2.90625 -1.140625q-1.078125 -1.15625 -1.078125 -3.1875q0 -2.0625 1.078125 -3.203125q1.09375 -1.140625 2.9375 -1.140625q1.515625 0 2.40625 0.65625q0.90625 0.640625 1.296875 1.984375zm1.1484375 1.578125q0 -1.09375 0.53125 -2.109375q0.546875 -1.03125 1.53125 -1.5625q1.0 -0.546875 2.21875 -0.546875q1.875 0 3.078125 1.21875q1.203125 1.21875 1.203125 3.09375q0 1.875 -1.21875 3.125q-1.203125 1.234375 -3.046875 1.234375q-1.140625 0 -2.1875 -0.515625q-1.03125 -0.515625 -1.578125 -1.515625q-0.53125 -1.0 -0.53125 -2.421875zm2.25 0.109375q0 1.234375 0.578125 1.890625q0.59375 0.65625 1.453125 0.65625q0.859375 0 1.4375 -0.65625q0.59375 -0.65625 0.59375 -1.90625q0 -1.21875 -0.59375 -1.875q-0.578125 -0.65625 -1.4375 -0.65625q-0.859375 0 -1.453125 0.65625q-0.578125 0.65625 -0.578125 1.890625zm15.5859375 4.15625l-2.203125 0l0 -4.234375q0 -1.34375 -0.140625 -1.734375q-0.140625 -0.40625 -0.453125 -0.625q-0.3125 -0.21875 -0.765625 -0.21875q-0.5625 0 -1.015625 0.3125q-0.453125 0.3125 -0.625 0.828125q-0.171875 0.515625 -0.171875 1.90625l0 3.765625l-2.1875 0l0 -8.296875l2.03125 0l0 1.21875q1.09375 -1.40625 2.734375 -1.40625q0.734375 0 1.328125 0.265625q0.609375 0.25 0.90625 0.65625q0.3125 0.40625 0.4375 0.921875q0.125 0.515625 0.125 1.484375l0 5.15625zm1.2578125 -8.296875l1.21875 0l0 -0.625q0 -1.046875 0.21875 -1.5625q0.234375 -0.515625 0.828125 -0.84375q0.59375 -0.328125 1.515625 -0.328125q0.9375 0 1.828125 0.28125l-0.296875 1.53125q-0.515625 -0.125 -1.0 -0.125q-0.484375 0 -0.6875 0.234375q-0.203125 0.21875 -0.203125 0.84375l0 0.59375l1.640625 0l0 1.71875l-1.640625 0l0 6.578125l-2.203125 0l0 -6.578125l-1.21875 0l0 -1.71875zm6.296875 -1.125l0 -2.03125l2.1875 0l0 2.03125l-2.1875 0zm0 9.421875l0 -8.296875l2.1875 0l0 8.296875l-2.1875 0zm4.2421875 0.546875l2.5 0.3125q0.0625 0.4375 0.296875 0.59375q0.3125 0.234375 0.984375 0.234375q0.859375 0 1.28125 -0.25q0.296875 -0.171875 0.4375 -0.5625q0.109375 -0.265625 0.109375 -1.015625l0 -1.203125q-0.984375 1.34375 -2.484375 1.34375q-1.671875 0 -2.65625 -1.421875q-0.765625 -1.109375 -0.765625 -2.78125q0 -2.078125 1.0 -3.171875q1.015625 -1.109375 2.5 -1.109375q1.546875 0 2.546875 1.34375l0 -1.15625l2.046875 0l0 7.4375q0 1.484375 -0.25 2.203125q-0.234375 0.734375 -0.671875 1.140625q-0.4375 0.421875 -1.171875 0.65625q-0.71875 0.234375 -1.84375 0.234375q-2.109375 0 -3.0 -0.734375q-0.875 -0.71875 -0.875 -1.828125q0 -0.109375 0.015625 -0.265625zm1.953125 -4.875q0 1.328125 0.515625 1.9375q0.515625 0.609375 1.265625 0.609375q0.796875 0 1.34375 -0.625q0.5625 -0.625 0.5625 -1.859375q0 -1.296875 -0.53125 -1.921875q-0.53125 -0.625 -1.34375 -0.625q-0.78125 0 -1.296875 0.625q-0.515625 0.609375 -0.515625 1.859375zm12.375 4.328125l0 -11.453125l2.1875 0l0 4.125q1.015625 -1.15625 2.40625 -1.15625q1.515625 0 2.5 1.09375q1.0 1.09375 1.0 3.15625q0 2.125 -1.015625 3.28125q-1.0 1.140625 -2.453125 1.140625q-0.703125 0 -1.40625 -0.359375q-0.6875 -0.359375 -1.1875 -1.046875l0 1.21875l-2.03125 0zm2.171875 -4.328125q0 1.28125 0.40625 1.90625q0.578125 0.875 1.515625 0.875q0.734375 0 1.234375 -0.625q0.515625 -0.625 0.515625 -1.953125q0 -1.421875 -0.515625 -2.046875q-0.515625 -0.640625 -1.3125 -0.640625q-0.796875 0 -1.328125 0.625q-0.515625 0.609375 -0.515625 1.859375zm7.6953125 4.328125l0 -11.453125l2.1875 0l0 11.453125l-2.1875 0zm3.9296875 -4.265625q0 -1.09375 0.53125 -2.109375q0.546875 -1.03125 1.53125 -1.5625q1.0 -0.546875 2.21875 -0.546875q1.875 0 3.078125 1.21875q1.203125 1.21875 1.203125 3.09375q0 1.875 -1.21875 3.125q-1.203125 1.234375 -3.046875 1.234375q-1.140625 0 -2.1875 -0.515625q-1.03125 -0.515625 -1.578125 -1.515625q-0.53125 -1.0 -0.53125 -2.421875zm2.25 0.109375q0 1.234375 0.578125 1.890625q0.59375 0.65625 1.453125 0.65625q0.859375 0 1.4375 -0.65625q0.59375 -0.65625 0.59375 -1.90625q0 -1.21875 -0.59375 -1.875q-0.578125 -0.65625 -1.4375 -0.65625q-0.859375 0 -1.453125 0.65625q-0.578125 0.65625 -0.578125 1.890625zm15.2734375 -1.6875l-2.171875 0.390625q-0.109375 -0.65625 -0.5 -0.984375q-0.375 -0.328125 -1.0 -0.328125q-0.8125 0 -1.3125 0.578125q-0.484375 0.5625 -0.484375 1.890625q0 1.46875 0.5 2.078125q0.5 0.609375 1.328125 0.609375q0.625 0 1.015625 -0.34375q0.40625 -0.359375 0.578125 -1.234375l2.15625 0.375q-0.34375 1.484375 -1.296875 2.25q-0.953125 0.75 -2.546875 0.75q-1.828125 0 -2.90625 -1.140625q-1.078125 -1.15625 -1.078125 -3.1875q0 -2.0625 1.078125 -3.203125q1.09375 -1.140625 2.9375 -1.140625q1.515625 0 2.40625 0.65625q0.90625 0.640625 1.296875 1.984375zm1.5859375 5.84375l0 -11.453125l2.1875 0l0 6.078125l2.578125 -2.921875l2.703125 0l-2.84375 3.03125l3.046875 5.265625l-2.375 0l-2.078125 -3.734375l-1.03125 1.078125l0 2.65625l-2.1875 0z" fill-rule="nonzero"/><path fill="#000000" fill-opacity="0.0" d="m152.53543 50.0l41.669296 0" fill-rule="evenodd"/><path stroke="#1d1d2a" stroke-width="1.0" stroke-linejoin="round" stroke-linecap="butt" stroke-dasharray="4.0,3.0" d="m155.96251 50.0l34.45221 0" fill-rule="evenodd"/><path fill="#1d1d2a" stroke="#1d1d2a" stroke-width="1.0" stroke-linecap="butt" d="m155.96252 50.0l1.1245728 -1.1245842l-3.0897675 1.1245842l3.0897675 1.1245842z" fill-rule="evenodd"/><path fill="#1d1d2a" stroke="#1d1d2a" stroke-width="1.0" stroke-linecap="butt" d="m193.70473 50.0c0 0.9085083 -0.736496 1.6450005 -1.6450043 1.6450005c-0.9085083 0 -1.6450043 -0.73649216 -1.6450043 -1.6450005c0 -0.9085083 0.736496 -1.6450005 1.6450043 -1.6450005c0.9085083 0 1.6450043 0.73649216 1.6450043 1.6450005z" fill-rule="nonzero"/><path fill="#000000" fill-opacity="0.0" d="m343.1273 50.0l40.75592 0" fill-rule="evenodd"/><path stroke="#1d1d2a" stroke-width="1.0" stroke-linejoin="round" stroke-linecap="butt" stroke-dasharray="4.0,3.0" d="m346.55438 50.0l33.53885 0" fill-rule="evenodd"/><path fill="#1d1d2a" stroke="#1d1d2a" stroke-width="1.0" stroke-linecap="butt" d="m346.55438 50.0l1.1245728 -1.1245842l-3.0897522 1.1245842l3.0897522 1.1245842z" fill-rule="evenodd"/><path fill="#1d1d2a" stroke="#1d1d2a" stroke-width="1.0" stroke-linecap="butt" d="m383.3832 50.0c0 0.9085083 -0.73651123 1.6450005 -1.6450195 1.6450005c-0.9085083 0 -1.644989 -0.73649216 -1.644989 -1.6450005c0 -0.9085083 0.7364807 -1.6450005 1.644989 -1.6450005c0.9085083 0 1.6450195 0.73649216 1.6450195 1.6450005z" fill-rule="nonzero"/></g></svg>